solid Multiview Drawing #16
facet normal 0.0 0.0 -1.0
  outer loop
    vertex 1.127986593019159e-14 19.049999999999997 0.0
    vertex 38.10000000000001 0.0 0.0
    vertex 0.0 0.0 0.0
  endloop
endfacet
facet normal 0.0 0.0 -1.0
  outer loop
    vertex 38.10000000000001 0.0 0.0
    vertex 1.127986593019159e-14 19.049999999999997 0.0
    vertex 19.050000000000004 19.049999999999994 0.0
  endloop
endfacet
facet normal 0.0 0.0 -1.0
  outer loop
    vertex 38.10000000000001 0.0 0.0
    vertex 19.050000000000004 19.049999999999994 0.0
    vertex 19.05000000000002 38.09999999999999 0.0
  endloop
endfacet
facet normal 0.0 0.0 -1.0
  outer loop
    vertex 38.10000000000001 0.0 0.0
    vertex 19.05000000000002 38.09999999999999 0.0
    vertex 38.10000000000001 38.09999999999999 0.0
  endloop
endfacet
facet normal 1.0 0.0 0.0
  outer loop
    vertex 38.10000000000001 38.09999999999999 0.0
    vertex 38.10000000000001 0.0 19.049999999999997
    vertex 38.10000000000001 0.0 0.0
  endloop
endfacet
facet normal 1.0 0.0 0.0
  outer loop
    vertex 38.10000000000001 0.0 19.049999999999997
    vertex 38.10000000000001 38.09999999999999 0.0
    vertex 38.10000000000001 19.049999999999994 19.049999999999997
  endloop
endfacet
facet normal 1.0 0.0 0.0
  outer loop
    vertex 38.10000000000001 19.049999999999994 19.049999999999997
    vertex 38.10000000000001 38.09999999999999 0.0
    vertex 38.10000000000001 19.049999999999994 38.099999999999994
  endloop
endfacet
facet normal 1.0 0.0 0.0
  outer loop
    vertex 38.10000000000001 19.049999999999994 38.099999999999994
    vertex 38.10000000000001 38.09999999999999 0.0
    vertex 38.10000000000001 38.09999999999999 38.099999999999994
  endloop
endfacet
facet normal 0.0 -1.0 0.0
  outer loop
    vertex 38.10000000000001 0.0 19.049999999999997
    vertex 0.0 0.0 0.0
    vertex 38.10000000000001 0.0 0.0
  endloop
endfacet
facet normal 0.0 -1.0 0.0
  outer loop
    vertex 0.0 0.0 0.0
    vertex 38.10000000000001 0.0 19.049999999999997
    vertex 19.05000000000002 0.0 19.049999999999997
  endloop
endfacet
facet normal 0.0 -1.0 0.0
  outer loop
    vertex 0.0 0.0 0.0
    vertex 19.05000000000002 0.0 19.049999999999997
    vertex 0.0 0.0 57.15
  endloop
endfacet
facet normal 0.0 -1.0 0.0
  outer loop
    vertex 0.0 0.0 57.15
    vertex 19.05000000000002 0.0 19.049999999999997
    vertex 19.05000000000002 0.0 57.15
  endloop
endfacet
facet normal -1.0 5.921189464667501e-16 0.0
  outer loop
    vertex 1.127986593019159e-14 19.049999999999997 57.15
    vertex 0.0 0.0 0.0
    vertex 0.0 0.0 57.15
  endloop
endfacet
facet normal -1.0 5.921189464667501e-16 0.0
  outer loop
    vertex 0.0 0.0 0.0
    vertex 1.127986593019159e-14 19.049999999999997 57.15
    vertex 1.127986593019159e-14 19.049999999999997 0.0
  endloop
endfacet
facet normal 2.9605947323337516e-16 1.0 0.0
  outer loop
    vertex 1.127986593019159e-14 19.049999999999997 57.15
    vertex 19.050000000000004 19.049999999999994 0.0
    vertex 1.127986593019159e-14 19.049999999999997 0.0
  endloop
endfacet
facet normal 2.9605947323337516e-16 1.0 0.0
  outer loop
    vertex 19.050000000000004 19.049999999999994 0.0
    vertex 1.127986593019159e-14 19.049999999999997 57.15
    vertex 19.050000000000004 19.049999999999994 19.049999999999997
  endloop
endfacet
facet normal 2.9605947323337516e-16 1.0 0.0
  outer loop
    vertex 19.050000000000004 19.049999999999994 19.049999999999997
    vertex 1.127986593019159e-14 19.049999999999997 57.15
    vertex 19.050000000000004 19.049999999999994 38.099999999999994
  endloop
endfacet
facet normal 2.9605947323337516e-16 1.0 0.0
  outer loop
    vertex 19.050000000000004 19.049999999999994 38.099999999999994
    vertex 1.127986593019159e-14 19.049999999999997 57.15
    vertex 19.050000000000004 19.049999999999994 57.15
  endloop
endfacet
facet normal -1.0 7.401486830834378e-16 0.0
  outer loop
    vertex 19.05000000000002 38.09999999999999 38.099999999999994
    vertex 19.050000000000004 19.049999999999994 19.049999999999997
    vertex 19.050000000000004 19.049999999999994 38.099999999999994
  endloop
endfacet
facet normal -1.0 7.401486830834378e-16 0.0
  outer loop
    vertex 19.050000000000004 19.049999999999994 19.049999999999997
    vertex 19.05000000000002 38.09999999999999 38.099999999999994
    vertex 19.050000000000004 19.049999999999994 0.0
  endloop
endfacet
facet normal -1.0 7.401486830834378e-16 0.0
  outer loop
    vertex 19.050000000000004 19.049999999999994 0.0
    vertex 19.05000000000002 38.09999999999999 38.099999999999994
    vertex 19.05000000000002 38.09999999999999 0.0
  endloop
endfacet
facet normal 0.0 1.0 0.0
  outer loop
    vertex 19.05000000000002 38.09999999999999 38.099999999999994
    vertex 38.10000000000001 38.09999999999999 0.0
    vertex 19.05000000000002 38.09999999999999 0.0
  endloop
endfacet
facet normal 0.0 1.0 0.0
  outer loop
    vertex 38.10000000000001 38.09999999999999 0.0
    vertex 19.05000000000002 38.09999999999999 38.099999999999994
    vertex 38.10000000000001 38.09999999999999 38.099999999999994
  endloop
endfacet
facet normal 0.0 0.0 1.0
  outer loop
    vertex 19.05000000000002 0.0 19.049999999999997
    vertex 38.10000000000001 19.049999999999994 19.049999999999997
    vertex 19.050000000000004 19.049999999999994 19.049999999999997
  endloop
endfacet
facet normal 0.0 0.0 1.0
  outer loop
    vertex 38.10000000000001 19.049999999999994 19.049999999999997
    vertex 19.05000000000002 0.0 19.049999999999997
    vertex 38.10000000000001 0.0 19.049999999999997
  endloop
endfacet
facet normal 0.0 0.0 1.0
  outer loop
    vertex 38.10000000000001 19.049999999999994 38.099999999999994
    vertex 19.05000000000002 38.09999999999999 38.099999999999994
    vertex 19.050000000000004 19.049999999999994 38.099999999999994
  endloop
endfacet
facet normal 0.0 0.0 1.0
  outer loop
    vertex 19.05000000000002 38.09999999999999 38.099999999999994
    vertex 38.10000000000001 19.049999999999994 38.099999999999994
    vertex 38.10000000000001 38.09999999999999 38.099999999999994
  endloop
endfacet
facet normal 0.0 -1.0 0.0
  outer loop
    vertex 38.10000000000001 19.049999999999994 38.099999999999994
    vertex 19.050000000000004 19.049999999999994 19.049999999999997
    vertex 38.10000000000001 19.049999999999994 19.049999999999997
  endloop
endfacet
facet normal 0.0 -1.0 0.0
  outer loop
    vertex 19.050000000000004 19.049999999999994 19.049999999999997
    vertex 38.10000000000001 19.049999999999994 38.099999999999994
    vertex 19.050000000000004 19.049999999999994 38.099999999999994
  endloop
endfacet
facet normal 1.0 7.40148683083438e-16 0.0
  outer loop
    vertex 19.050000000000004 19.049999999999994 19.049999999999997
    vertex 19.05000000000002 0.0 57.15
    vertex 19.05000000000002 0.0 19.049999999999997
  endloop
endfacet
facet normal 1.0 7.40148683083438e-16 0.0
  outer loop
    vertex 19.05000000000002 0.0 57.15
    vertex 19.050000000000004 19.049999999999994 19.049999999999997
    vertex 19.050000000000004 19.049999999999994 57.15
  endloop
endfacet
facet normal 1.0 7.40148683083438e-16 0.0
  outer loop
    vertex 19.050000000000004 19.049999999999994 57.15
    vertex 19.050000000000004 19.049999999999994 19.049999999999997
    vertex 19.050000000000004 19.049999999999994 38.099999999999994
  endloop
endfacet
facet normal 0.0 0.0 1.0
  outer loop
    vertex 19.05000000000002 0.0 57.15
    vertex 1.127986593019159e-14 19.049999999999997 57.15
    vertex 0.0 0.0 57.15
  endloop
endfacet
facet normal 0.0 0.0 1.0
  outer loop
    vertex 1.127986593019159e-14 19.049999999999997 57.15
    vertex 19.05000000000002 0.0 57.15
    vertex 19.050000000000004 19.049999999999994 57.15
  endloop
endfacet
endsolid Multiview Drawing #16
